<svg width="100" height="100" viewBox="0 0 100 100" fill="none" xmlns="http://www.w3.org/2000/svg">
<path d="M0 50C0 22.3858 22.3858 0 50 0C77.6142 0 100 22.3858 100 50C100 77.6142 77.6142 100 50 100C22.3858 100 0 77.6142 0 50Z" fill="#0F62FE"/>
<path d="M52.7188 71.875L50 70.3125L56.25 59.375H65.625C66.4538 59.375 67.2487 59.0458 67.8347 58.4597C68.4208 57.8737 68.75 57.0788 68.75 56.25V37.5C68.75 36.6712 68.4208 35.8763 67.8347 35.2903C67.2487 34.7042 66.4538 34.375 65.625 34.375H34.375C33.5462 34.375 32.7513 34.7042 32.1653 35.2903C31.5792 35.8763 31.25 36.6712 31.25 37.5V56.25C31.25 57.0788 31.5792 57.8737 32.1653 58.4597C32.7513 59.0458 33.5462 59.375 34.375 59.375H48.4375V62.5H34.375C32.7174 62.5 31.1277 61.8415 29.9556 60.6694C28.7835 59.4973 28.125 57.9076 28.125 56.25V37.5C28.125 35.8424 28.7835 34.2527 29.9556 33.0806C31.1277 31.9085 32.7174 31.25 34.375 31.25H65.625C67.2826 31.25 68.8723 31.9085 70.0444 33.0806C71.2165 34.2527 71.875 35.8424 71.875 37.5V56.25C71.875 57.9076 71.2165 59.4973 70.0444 60.6694C68.8723 61.8415 67.2826 62.5 65.625 62.5H58.0625L52.7188 71.875Z" fill="white"/>
<path d="M37.5 40.625H62.5V43.75H37.5V40.625ZM37.5 50H53.125V53.125H37.5V50Z" fill="white"/>
</svg>
